<?xml version="1.0" standalone="no"?>
<!DOCTYPE svg PUBLIC "-//W3C//DTD SVG 20010904//EN"
 "http://www.w3.org/TR/2001/REC-SVG-20010904/DTD/svg10.dtd">
<svg version="1.0" xmlns="http://www.w3.org/2000/svg"
 width="1408.000000pt" height="768.000000pt" viewBox="0 0 1408.000000 768.000000"
 preserveAspectRatio="xMidYMid meet">

<g transform="translate(0.000000,768.000000) scale(0.100000,-0.100000)"
fill="#000000" stroke="none">
<path d="M2294 5346 c-92 -40 -110 -168 -34 -241 l31 -30 344 -5 c328 -5 345
-6 364 -25 11 -11 158 -366 326 -790 168 -423 320 -804 337 -845 l30 -74 -22
-16 c-131 -91 -181 -160 -200 -268 -31 -189 87 -356 275 -392 l62 -12 -5 -48
c-10 -112 71 -232 179 -264 65 -20 93 -20 152 -2 107 32 180 133 181 252 l1
64 321 0 321 0 -5 -55 c-8 -97 42 -187 133 -240 117 -69 268 -23 343 103 23
40 27 58 27 119 l0 73 138 0 137 0 -6 28 c-3 15 -10 42 -16 60 l-10 32 -132 0
c-85 0 -142 4 -159 13 -27 12 -36 27 -17 27 6 0 10 5 10 11 0 6 -9 8 -22 4
-22 -6 -22 -6 -4 9 11 9 14 16 8 16 -7 0 -12 5 -12 10 0 6 28 11 63 12 142 4
-597 15 -1100 17 l-541 1 -31 26 c-61 51 -60 142 2 202 l34 33 884 2 884 2 46
27 c25 15 54 40 64 55 20 30 277 774 270 781 -2 3 -7 -7 -11 -22 -3 -14 -10
-26 -15 -26 -5 0 -9 -7 -9 -15 0 -9 -6 -15 -12 -14 -24 3 -58 -13 -58 -27 0
-8 -6 -14 -13 -14 -7 0 -13 -9 -13 -20 0 -14 5 -19 15 -15 7 3 22 -3 31 -12
13 -14 15 -24 8 -45 -6 -16 -14 -25 -19 -22 -5 3 -7 9 -4 13 2 5 -9 11 -26 15
-23 4 -30 10 -25 21 3 10 2 13 -5 10 -6 -4 -8 -13 -5 -21 4 -11 -1 -13 -19 -8
-19 5 -25 2 -25 -9 0 -9 -4 -19 -10 -22 -6 -4 -7 2 -2 17 5 13 19 55 32 95 13
41 28 69 33 66 6 -4 8 0 4 10 -3 9 21 100 54 202 32 102 59 202 59 221 0 47
-24 102 -63 142 -55 57 -92 62 -446 62 -176 0 -310 4 -303 9 10 6 8 10 -10 15
-17 6 -19 9 -8 13 25 10 41 43 20 43 -6 0 -9 -5 -8 -11 2 -6 -3 -14 -9 -16
-19 -7 -16 11 7 35 11 12 20 25 20 30 0 6 48 10 107 11 59 1 109 4 112 6 2 3
-146 5 -330 5 -184 0 -569 3 -856 7 -307 3 -523 2 -523 -3 1 -5 26 -72 58
-149 l57 -140 993 -5 994 -5 20 -24 c13 -17 17 -33 13 -50 -10 -43 -286 -844
-301 -872 -7 -14 -26 -31 -41 -38 -20 -8 -192 -11 -627 -9 l-600 3 195 135
c107 73 206 143 221 154 28 20 28 20 70 -1 106 -52 211 -34 290 47 194 201
-26 524 -277 406 -52 -24 -109 -80 -126 -123 l-9 -25 -338 4 c-365 4 -380 6
-463 63 -21 15 -48 43 -60 61 -11 18 -117 275 -235 571 -230 578 -231 580
-311 602 -60 17 -810 14 -849 -3z m2569 -1307 c76 -82 -16 -212 -117 -164 -68
32 -82 116 -30 169 44 43 103 42 147 -5z m1014 -125 c-3 -3 -12 -4 -19 -1 -8
3 -5 6 6 6 11 1 17 -2 13 -5z m-1372 -40 c-39 -30 -550 -364 -557 -364 -6 0
-148 354 -148 371 0 5 146 9 363 9 327 -1 360 -2 342 -16z m1345 -109 c0 -8
-5 -15 -11 -15 -5 0 -7 5 -4 10 3 6 -1 13 -9 16 -9 3 -16 10 -16 15 0 6 9 5
20 -1 11 -6 20 -17 20 -25z m-424 -1077 c8 -15 14 -36 14 -48 0 -18 -3 -19
-20 -10 -11 6 -20 16 -20 23 0 7 -11 25 -24 41 -13 17 -21 38 -18 48 4 18 6
18 29 -4 14 -13 31 -35 39 -50z m-1293 -38 c58 -64 13 -170 -73 -170 -81 0
-129 101 -79 164 43 54 105 57 152 6z m1146 5 c20 -20 26 -35 26 -71 0 -39 -5
-50 -33 -75 -88 -79 -215 28 -152 129 11 18 30 37 43 42 34 15 88 3 116 -25z"/>
<path d="M1164 4626 c-30 -30 -34 -40 -34 -84 0 -43 5 -55 31 -81 l31 -31 836
2 c460 1 819 3 797 5 -75 6 -87 11 -75 33 7 13 7 21 -2 26 -7 5 -8 3 -3 -6 5
-9 4 -11 -4 -6 -6 4 -8 12 -5 18 4 6 -1 17 -11 25 -12 8 -14 13 -6 13 11 0 11
3 1 15 -7 8 -17 12 -23 8 -6 -3 -7 -1 -3 5 3 6 -6 23 -21 39 l-28 28 50 5 50
6 -70 5 c-38 3 -387 7 -773 8 l-704 1 -34 -34z"/>
<path d="M10748 4651 c-103 -34 -152 -158 -95 -241 41 -62 70 -75 157 -75 64
0 84 4 107 21 97 72 98 207 3 271 -42 27 -126 39 -172 24z"/>
<path d="M2671 4623 c-1 -18 13 -23 29 -11 12 8 12 9 -2 5 -9 -3 -19 -1 -22 6
-3 9 -5 9 -5 0z"/>
<path d="M11494 4570 c-132 -43 -223 -170 -232 -321 l-5 -79 -78 0 -79 0 0
-115 0 -115 80 0 80 0 0 -390 0 -389 53 3 c28 2 96 4 151 5 l98 1 -3 383 -4
382 128 3 128 3 -3 112 -3 112 -127 3 -128 3 0 45 c0 58 25 111 61 129 36 19
107 19 152 0 l35 -15 22 63 c12 34 28 81 36 105 l13 43 -47 21 c-70 32 -244
36 -328 8z"/>
<path d="M6992 4500 c-253 -68 -432 -244 -498 -490 -23 -87 -24 -262 -1 -350
22 -84 77 -195 128 -260 82 -103 223 -193 368 -232 115 -32 316 -30 428 4 45
13 107 40 138 59 70 42 177 137 173 154 -2 7 -45 51 -97 99 l-94 86 -58 -54
c-84 -78 -146 -100 -279 -100 -134 0 -195 22 -280 101 -141 130 -177 335 -92
516 71 152 224 236 404 224 96 -6 186 -45 255 -110 l48 -45 100 94 100 94 -62
59 c-71 66 -146 109 -248 141 -103 33 -330 38 -433 10z"/>
<path d="M9900 4300 l0 -130 -80 0 -80 0 0 -115 0 -115 78 3 77 2 5 -276 5
-276 35 -69 c43 -84 95 -126 192 -155 99 -30 248 -24 331 14 31 14 57 28 57
31 0 16 -74 206 -80 206 -4 0 -21 -7 -36 -15 -16 -8 -53 -15 -83 -15 -47 0
-57 4 -86 33 -43 43 -47 71 -43 322 l3 200 128 3 127 3 0 109 0 110 -130 0
-130 0 0 130 0 130 -145 0 -145 0 0 -130z"/>
<path d="M8240 4203 c-88 -7 -196 -35 -276 -73 -45 -20 -84 -42 -88 -48 -5 -8
80 -182 98 -200 3 -2 24 8 48 21 73 43 160 67 241 67 141 0 218 -50 241 -156
l7 -31 -188 -6 c-194 -6 -254 -16 -338 -57 -101 -49 -164 -166 -151 -283 12
-117 71 -197 185 -250 56 -27 79 -31 172 -35 138 -6 222 17 292 79 l47 41 0
-54 0 -53 138 0 137 0 3 300 c4 420 -13 510 -114 611 -93 94 -268 143 -454
127z m270 -657 c0 -118 -86 -195 -218 -196 -100 0 -153 35 -167 111 -7 43 10
77 54 106 32 21 44 23 182 23 l149 0 0 -44z"/>
<path d="M9506 4184 c-61 -19 -89 -37 -143 -88 l-43 -40 0 67 0 67 -140 0
-140 0 0 -514 0 -513 148 1 147 1 5 295 5 295 31 55 c22 38 46 64 79 85 42 26
59 30 137 33 l88 4 0 134 0 134 -62 -1 c-35 0 -85 -7 -112 -15z"/>
<path d="M10660 3680 l0 -510 150 0 150 0 0 510 0 510 -150 0 -150 0 0 -510z"/>
<path d="M11813 4178 c126 -305 197 -476 297 -708 67 -157 123 -296 126 -310
6 -34 -33 -99 -75 -124 -49 -28 -117 -25 -187 9 -30 15 -57 25 -60 23 -2 -3
-26 -50 -54 -106 l-49 -102 22 -14 c89 -58 229 -87 338 -68 133 23 226 93 292
221 31 60 487 1171 487 1187 0 2 -64 4 -142 4 l-143 -1 -134 -340 c-74 -186
-138 -336 -141 -332 -4 5 -58 134 -120 288 -62 154 -124 304 -137 333 l-23 52
-151 0 c-117 0 -150 -3 -146 -12z"/>
<path d="M1782 4130 c-63 -38 -69 -132 -12 -182 l30 -28 631 0 c702 0 676 -2
706 67 20 48 10 92 -28 129 l-30 29 -632 3 c-618 2 -633 2 -665 -18z"/>
<path d="M2454 3630 c-62 -25 -85 -121 -42 -175 40 -52 48 -52 482 -48 220 2
410 6 422 8 11 3 33 17 47 31 22 21 27 36 27 73 0 26 -7 56 -16 69 -36 51 -42
52 -486 51 -227 0 -423 -4 -434 -9z"/>
<path d="M7036 2890 c-42 -13 -85 -58 -97 -102 -18 -68 12 -133 78 -167 31
-16 109 -14 144 4 88 46 92 193 7 249 -30 20 -95 28 -132 16z m118 -66 c41
-41 39 -106 -5 -146 -73 -69 -186 1 -164 102 15 69 117 96 169 44z"/>
<path d="M9173 2880 c-74 -33 -103 -114 -69 -195 21 -49 68 -75 137 -75 42 0
63 5 83 21 24 19 26 23 13 37 -13 13 -18 13 -38 -2 -66 -46 -159 3 -159 84 0
79 93 130 157 85 18 -13 22 -13 33 0 16 19 5 34 -36 51 -44 19 -71 17 -121 -6z"/>
<path d="M9484 2890 c-18 -6 -46 -26 -63 -45 -26 -30 -31 -44 -31 -88 0 -92
56 -149 146 -149 50 0 97 24 126 63 24 32 26 104 4 147 -32 61 -112 93 -182
72z m113 -55 c32 -23 47 -77 33 -120 -6 -19 -21 -42 -33 -50 -40 -28 -115 -15
-144 24 -31 42 -21 111 20 143 27 22 95 23 124 3z"/>
<path d="M11202 2890 c-62 -15 -102 -70 -102 -142 0 -81 59 -139 144 -140 46
-1 106 25 106 47 0 23 -18 27 -49 10 -74 -38 -151 5 -151 83 0 60 38 102 94
102 23 0 51 -7 63 -15 18 -13 22 -13 33 0 17 21 -2 42 -49 55 -40 11 -43 11
-89 0z"/>
<path d="M6560 2751 l0 -141 24 0 c23 0 23 0 18 90 -2 50 -1 90 4 90 5 0 29
-34 52 -75 24 -41 49 -75 55 -75 7 0 32 35 57 78 l45 77 3 -92 c3 -91 3 -93
27 -93 l25 0 0 140 c0 139 0 140 -23 140 -18 0 -34 -19 -76 -91 -34 -57 -57
-87 -63 -81 -6 6 -31 45 -57 88 -33 55 -54 80 -69 82 -22 3 -22 2 -22 -137z"/>
<path d="M7300 2750 l0 -140 78 0 c98 0 151 23 175 73 22 46 21 94 -1 136 -28
53 -72 71 -169 71 l-83 0 0 -140z m191 71 c31 -31 39 -83 19 -122 -16 -28 -63
-49 -115 -49 l-45 0 0 100 0 100 56 0 c48 0 59 -4 85 -29z"/>
<path d="M7640 2750 l0 -140 105 0 c98 0 105 1 105 20 0 17 -8 19 -82 22 l-83
3 -3 38 -3 37 70 0 c64 0 71 2 71 20 0 17 -8 19 -67 22 l-68 3 -3 38 -3 37 80
0 c74 0 81 2 81 20 0 19 -7 20 -100 20 l-100 0 0 -140z"/>
<path d="M7912 2750 c3 -136 4 -140 25 -140 19 0 22 6 25 43 3 40 4 42 39 45
34 3 39 -1 65 -42 23 -37 35 -46 57 -46 l28 0 -31 44 -30 45 25 27 c38 41 35
104 -6 138 -28 24 -39 26 -115 26 l-85 0 3 -140z m175 74 c15 -24 15 -29 2
-53 -13 -23 -22 -26 -72 -29 l-57 -3 0 56 0 55 55 0 c48 0 57 -3 72 -26z"/>
<path d="M8220 2749 c0 -138 0 -140 22 -137 20 3 21 8 19 91 -1 48 2 87 7 87
5 0 41 -40 81 -90 46 -56 80 -90 92 -90 18 0 19 9 19 140 l0 140 -25 0 c-24 0
-24 -2 -27 -91 l-3 -90 -73 90 c-47 57 -81 91 -93 91 -18 0 -19 -9 -19 -141z"/>
<path d="M8670 2750 l0 -140 105 0 c98 0 105 1 105 20 0 18 -7 20 -85 20 l-85
0 0 40 0 40 70 0 c63 0 70 2 70 20 0 17 -8 19 -67 22 l-68 3 -3 38 -3 37 80 0
c74 0 81 2 81 20 0 19 -7 20 -100 20 l-100 0 0 -140z"/>
<path d="M9750 2750 l0 -140 25 0 c24 0 24 2 27 91 l3 92 44 -77 c24 -42 49
-76 56 -76 8 0 33 35 57 78 l43 77 3 -92 c3 -91 3 -93 27 -93 l25 0 0 140 c0
139 0 140 -22 140 -18 0 -33 -18 -72 -85 -27 -47 -52 -88 -57 -90 -4 -3 -32
35 -61 85 -42 70 -58 90 -75 90 -23 0 -23 -1 -23 -140z"/>
<path d="M10150 2751 c0 -134 1 -141 20 -141 19 0 20 7 20 91 0 49 4 88 9 85
5 -3 27 -37 51 -76 23 -39 47 -69 53 -67 7 2 30 36 52 75 22 40 43 72 47 72 5
0 8 -40 8 -90 0 -83 1 -90 20 -90 19 0 20 7 20 141 0 140 0 140 -22 137 -17
-2 -36 -27 -73 -90 -27 -48 -52 -88 -55 -88 -3 0 -28 40 -55 88 -37 63 -56 88
-73 90 -22 3 -22 3 -22 -137z"/>
<path d="M10540 2750 l0 -140 105 0 c98 0 105 1 105 20 0 18 -7 20 -79 20 -84
0 -91 4 -91 56 0 23 3 24 70 24 63 0 70 2 70 20 0 18 -7 20 -65 20 l-65 0 0
40 0 40 75 0 c68 0 75 2 75 20 0 19 -7 20 -100 20 l-100 0 0 -140z"/>
<path d="M10810 2750 l0 -140 24 0 c22 0 25 5 28 43 3 40 4 42 39 45 34 3 39
-1 65 -42 23 -37 35 -46 57 -46 l28 0 -32 46 c-31 46 -31 46 -10 60 43 31 44
121 0 157 -17 13 -40 17 -110 17 l-89 0 0 -140z m177 74 c15 -24 15 -29 2 -53
-13 -23 -22 -26 -72 -29 l-57 -3 0 56 0 55 55 0 c48 0 57 -3 72 -26z"/>
<path d="M11420 2750 l0 -140 105 0 c98 0 105 1 105 20 0 18 -7 20 -80 20
l-80 0 0 40 0 40 65 0 c58 0 65 2 65 20 0 18 -7 20 -65 20 l-65 0 0 40 0 40
75 0 c68 0 75 2 75 20 0 19 -7 20 -100 20 l-100 0 0 -140z"/>
<path d="M8930 2719 c0 -18 5 -20 52 -17 41 2 54 7 56 21 3 14 -5 17 -52 17
-50 0 -56 -2 -56 -21z"/>
</g>
</svg>
